<?xml version="1.0" encoding="UTF-8" standalone="no"?><!DOCTYPE svg PUBLIC "-//W3C//DTD SVG 1.1//EN" "http://www.w3.org/Graphics/SVG/1.1/DTD/svg11.dtd"><svg width="100%" height="100%" viewBox="0 0 540 540" version="1.1" xmlns="http://www.w3.org/2000/svg" xmlns:xlink="http://www.w3.org/1999/xlink" xml:space="preserve" xmlns:serif="http://www.serif.com/" style="fill-rule:evenodd;clip-rule:evenodd;stroke-linejoin:round;stroke-miterlimit:2;"><rect x="0" y="0" width="540" height="540" style="fill-rule:nonzero;"/><g><path d="M447.763,287.775l-0,-44.586l-4.287,2.001l-3.144,41.521" style="fill:#0f2e9b;"/><path d="M448.62,287.775l0,-44.586l4.287,2.001l3.144,41.521" style="fill:#0a71ff;"/><path d="M443.238,243.57l4.954,-2.096l-0,-3.906l-4.954,6.002Z" style="fill:#0f2e9b;"/><path d="M453.146,243.57l-4.954,-2.096l-0,-3.906l4.954,6.002Z" style="fill:#0a71ff;"/></g><path d="M487.928,286.21c-5.399,0 -10.585,-0.461 -15.558,-1.384c-4.973,-0.923 -8.972,-2.118 -11.999,-3.585l5.306,-7.566c2.871,1.318 6.298,2.399 10.281,3.244c3.982,0.845 7.998,1.267 12.047,1.267c3.124,0 5.635,-0.198 7.533,-0.595c1.898,-0.396 3.292,-0.943 4.183,-1.641c0.891,-0.698 1.337,-1.493 1.337,-2.384c-0,-1.155 -0.716,-2.077 -2.147,-2.766c-1.431,-0.689 -3.307,-1.25 -5.627,-1.683c-2.321,-0.433 -4.879,-0.843 -7.677,-1.23c-2.798,-0.387 -5.601,-0.863 -8.411,-1.427c-2.811,-0.564 -5.376,-1.3 -7.696,-2.21c-2.32,-0.91 -4.196,-2.112 -5.627,-3.606c-1.43,-1.495 -2.146,-3.395 -2.146,-5.7c0,-2.453 1.04,-4.694 3.12,-6.723c2.079,-2.029 5.232,-3.652 9.456,-4.87c4.225,-1.218 9.545,-1.828 15.959,-1.828c4.225,0 8.405,0.322 12.541,0.964c4.136,0.643 7.781,1.59 10.935,2.841l-4.88,7.58c-3.117,-1.145 -6.267,-1.991 -9.451,-2.539c-3.184,-0.548 -6.277,-0.822 -9.279,-0.822c-3.047,0 -5.526,0.223 -7.437,0.669c-1.911,0.446 -3.296,1.036 -4.154,1.771c-0.859,0.734 -1.289,1.56 -1.289,2.476c0,1.139 0.716,2.048 2.147,2.729c1.431,0.681 3.307,1.228 5.628,1.64c2.32,0.413 4.885,0.815 7.695,1.206c2.81,0.392 5.614,0.863 8.412,1.415c2.797,0.551 5.356,1.276 7.676,2.173c2.321,0.897 4.196,2.089 5.628,3.575c1.431,1.486 2.146,3.361 2.146,5.626c0,2.411 -1.049,4.632 -3.148,6.66c-2.1,2.029 -5.265,3.657 -9.496,4.883c-4.232,1.227 -9.568,1.84 -16.008,1.84Z" style="fill:#0a71ff;"/><path d="M260.876,303.67l-5.642,-8.358l3.586,0l3.876,5.765l3.9,-5.764l3.299,-0l-5.642,8.379l0,4.603l-3.377,0l-0,-4.625Z" style="fill:#73a3d9;"/><path d="M296.744,308.403c-1.572,0 -3.082,-0.135 -4.529,-0.405c-1.448,-0.271 -2.613,-0.621 -3.494,-1.05l1.545,-2.217c0.836,0.386 1.834,0.703 2.993,0.95c1.16,0.248 2.329,0.372 3.508,0.372c0.91,-0 1.641,-0.059 2.193,-0.175c0.553,-0.116 0.959,-0.276 1.218,-0.481c0.26,-0.204 0.39,-0.437 0.39,-0.698c-0,-0.338 -0.209,-0.608 -0.626,-0.81c-0.416,-0.202 -0.962,-0.366 -1.638,-0.493c-0.676,-0.127 -1.421,-0.247 -2.235,-0.361c-0.815,-0.113 -1.631,-0.252 -2.449,-0.418c-0.819,-0.165 -1.566,-0.381 -2.241,-0.647c-0.676,-0.266 -1.222,-0.619 -1.639,-1.056c-0.416,-0.438 -0.624,-0.995 -0.624,-1.67c-0,-0.719 0.302,-1.375 0.908,-1.969c0.605,-0.595 1.523,-1.07 2.753,-1.427c1.231,-0.357 2.779,-0.536 4.647,-0.536c1.23,0 2.448,0.095 3.652,0.283c1.204,0.188 2.265,0.466 3.184,0.832l-1.421,2.221c-0.908,-0.336 -1.825,-0.584 -2.752,-0.744c-0.927,-0.161 -1.828,-0.241 -2.702,-0.241c-0.887,0 -1.609,0.065 -2.165,0.196c-0.557,0.131 -0.96,0.303 -1.21,0.519c-0.25,0.215 -0.375,0.457 -0.375,0.725c-0,0.334 0.208,0.6 0.625,0.8c0.417,0.199 0.963,0.359 1.639,0.48c0.675,0.121 1.422,0.239 2.24,0.353c0.819,0.115 1.635,0.253 2.449,0.415c0.815,0.161 1.56,0.373 2.236,0.636c0.675,0.263 1.221,0.612 1.638,1.047c0.417,0.436 0.625,0.985 0.625,1.649c0,0.706 -0.305,1.356 -0.917,1.951c-0.611,0.594 -1.532,1.071 -2.764,1.43c-1.233,0.359 -2.786,0.539 -4.662,0.539Z" style="fill:#73a3d9;"/><path d="M167.824,302.936l0,3.03l10.313,-0l-0,2.437l-14.66,0l-0,-13.09l14.292,-0l-0,2.437l-9.945,-0l0,2.831l8.804,-0l-0,2.355l-8.804,0Z" style="fill:#73a3d9;"/><path d="M466.828,302.936l0,3.03l10.313,-0l-0,2.437l-14.661,0l0,-13.09l14.293,-0l-0,2.437l-9.945,-0l0,2.831l8.803,-0l0,2.355l-8.803,0Z" style="fill:#73a3d9;"/><path d="M360.142,304.791l-0,3.612l-3.921,0l-0,-13.091l7.306,0c1.52,0 2.828,0.191 3.926,0.571c1.098,0.38 1.943,0.926 2.537,1.638c0.594,0.711 0.891,1.557 0.891,2.537c-0,0.972 -0.297,1.813 -0.891,2.522c-0.594,0.709 -1.439,1.255 -2.537,1.638c-1.098,0.382 -2.406,0.573 -3.926,0.573l-3.385,0Z" style="fill:#73a3d9;"/><path d="M360.044,302.363l3.184,-0c1.197,-0 2.096,-0.2 2.698,-0.598c0.602,-0.399 0.902,-0.955 0.902,-1.67c0,-0.722 -0.3,-1.282 -0.902,-1.68c-0.602,-0.398 -1.501,-0.598 -2.698,-0.598l-3.184,0l-0,4.546Z" style="stroke:#73a3d9;stroke-width:0.5px;"/><path d="M116.509,304.791l-0,3.612l-3.921,0l-0,-13.091l7.307,0c1.519,0 2.828,0.191 3.925,0.571c1.098,0.38 1.943,0.926 2.537,1.638c0.594,0.711 0.891,1.557 0.891,2.537c0,0.972 -0.297,1.813 -0.891,2.522c-0.594,0.709 -1.439,1.255 -2.537,1.638c-1.097,0.382 -2.406,0.573 -3.925,0.573l-3.386,0Z" style="fill:#73a3d9;"/><path d="M116.543,302.494l3.184,0c1.197,0 2.096,-0.199 2.698,-0.597c0.602,-0.399 0.902,-0.955 0.902,-1.67c0,-0.722 -0.3,-1.282 -0.902,-1.68c-0.602,-0.399 -1.501,-0.598 -2.698,-0.598l-3.184,0l-0,4.545Z"/><path d="M43.128,308.403c-1.194,0 -2.299,-0.16 -3.314,-0.479c-1.016,-0.32 -1.897,-0.774 -2.643,-1.361c-0.747,-0.587 -1.328,-1.28 -1.743,-2.077c-0.416,-0.797 -0.623,-1.673 -0.623,-2.628c-0,-0.955 0.207,-1.831 0.623,-2.629c0.415,-0.797 0.999,-1.489 1.749,-2.077c0.751,-0.587 1.634,-1.04 2.65,-1.36c1.015,-0.32 2.12,-0.48 3.314,-0.48c1.331,0 2.536,0.19 3.616,0.57c1.08,0.38 1.982,0.936 2.708,1.669l-2.277,1.74c-0.525,-0.492 -1.11,-0.864 -1.756,-1.116c-0.646,-0.253 -1.353,-0.379 -2.12,-0.379c-0.718,0 -1.376,0.098 -1.974,0.294c-0.598,0.196 -1.117,0.474 -1.555,0.835c-0.438,0.361 -0.778,0.791 -1.02,1.288c-0.242,0.498 -0.363,1.046 -0.363,1.645c0,0.599 0.121,1.147 0.363,1.644c0.242,0.498 0.582,0.927 1.02,1.288c0.438,0.361 0.957,0.64 1.555,0.836c0.598,0.195 1.256,0.293 1.974,0.293c0.767,0 1.474,-0.126 2.12,-0.378c0.646,-0.252 1.231,-0.628 1.756,-1.127l2.277,1.74c-0.726,0.728 -1.628,1.285 -2.708,1.671c-1.08,0.385 -2.289,0.578 -3.629,0.578Z" style="fill:#73a3d9;"/><path d="M68.288,308.403c-1.251,0 -2.407,-0.163 -3.47,-0.488c-1.062,-0.326 -1.983,-0.784 -2.762,-1.374c-0.779,-0.589 -1.385,-1.282 -1.817,-2.077c-0.433,-0.795 -0.649,-1.665 -0.649,-2.61c-0,-0.944 0.216,-1.812 0.649,-2.604c0.432,-0.792 1.039,-1.484 1.819,-2.076c0.78,-0.592 1.7,-1.05 2.758,-1.375c1.059,-0.324 2.214,-0.486 3.464,-0.486c1.256,-0 2.41,0.161 3.464,0.484c1.054,0.324 1.97,0.78 2.748,1.37c0.778,0.589 1.384,1.281 1.816,2.076c0.433,0.794 0.649,1.665 0.649,2.613c0,0.947 -0.216,1.819 -0.649,2.616c-0.432,0.797 -1.038,1.49 -1.816,2.078c-0.778,0.589 -1.694,1.045 -2.748,1.368c-1.054,0.323 -2.206,0.485 -3.456,0.485Z" style="fill:#73a3d9;"/><path d="M68.254,306.072c0.71,-0 1.365,-0.099 1.966,-0.295c0.601,-0.197 1.125,-0.476 1.573,-0.837c0.448,-0.362 0.797,-0.79 1.047,-1.286c0.25,-0.496 0.375,-1.045 0.375,-1.647c-0,-0.601 -0.125,-1.149 -0.374,-1.642c-0.249,-0.493 -0.597,-0.921 -1.046,-1.282c-0.448,-0.362 -0.973,-0.641 -1.574,-0.838c-0.601,-0.197 -1.256,-0.296 -1.966,-0.296c-0.709,0 -1.366,0.099 -1.969,0.296c-0.604,0.197 -1.131,0.477 -1.581,0.839c-0.45,0.362 -0.799,0.79 -1.049,1.284c-0.25,0.494 -0.375,1.04 -0.375,1.639c0,0.599 0.125,1.146 0.374,1.642c0.25,0.496 0.599,0.926 1.048,1.29c0.449,0.364 0.976,0.644 1.58,0.839c0.605,0.196 1.262,0.294 1.971,0.294Z"/><path d="M487.793,308.403l-0,-13.091l7.791,0c1.873,0 3.519,0.271 4.939,0.812c1.42,0.541 2.528,1.3 3.326,2.276c0.797,0.976 1.196,2.129 1.196,3.458c-0,1.324 -0.399,2.475 -1.196,3.454c-0.798,0.978 -1.906,1.738 -3.326,2.279c-1.42,0.541 -3.066,0.812 -4.939,0.812l-7.791,0Z" style="fill:#73a3d9;"/><path d="M491.748,306.076l3.625,0c1.143,0 2.134,-0.165 2.973,-0.496c0.84,-0.331 1.493,-0.802 1.959,-1.412c0.466,-0.61 0.7,-1.329 0.7,-2.155c-0,-0.839 -0.234,-1.56 -0.7,-2.165c-0.466,-0.604 -1.119,-1.071 -1.959,-1.402c-0.839,-0.331 -1.83,-0.497 -2.973,-0.497l-3.625,0l0,8.127Z"/><path d="M334.163,301.647l0,6.756l-3.255,0l0,-13.091l2.908,0l4.387,7.569l4.285,-7.569l2.908,0l0.03,13.091l-3.255,0l-0.026,-6.93l-3.209,5.642l-1.568,-0l-3.205,-5.468Z" style="fill:#73a3d9;"/><path d="M91.058,301.647l-0,6.756l-3.255,0l-0,-13.091l2.908,0l4.387,7.569l4.285,-7.569l2.907,0l0.031,13.091l-3.255,0l-0.027,-6.93l-3.209,5.642l-1.567,-0l-3.205,-5.468Z" style="fill:#73a3d9;"/><path d="M381.006,308.403l-0,-13.091l4.642,0l0,10.617l10.018,-0l0,2.474l-14.66,0Z" style="fill:#73a3d9;"/><path d="M137.9,308.347l0,-13.034l4.643,-0l-0,10.571l10.018,-0l-0,2.463l-14.661,0Z" style="fill:#73a3d9;"/><path d="M196.216,304.351l-2.871,4.052l-4.556,0l5.144,-6.638l-4.925,-6.453l4.493,0l2.83,3.785l2.772,-3.785l4.303,0l-4.911,6.324l5.232,6.767l-4.575,0l-2.936,-4.052Z" style="fill:#73a3d9;"/><rect x="406.582" y="295.313" width="4.452" height="13.091" style="fill:#73a3d9;"/><rect x="315.879" y="295.313" width="4.452" height="13.091" style="fill:#73a3d9;"/><rect x="447.188" y="295.313" width="4.452" height="13.091" style="fill:#73a3d9;"/><rect x="214.629" y="295.313" width="4.452" height="13.091" style="fill:#73a3d9;"/><path d="M235.275,308.403l-0,-10.616l-5.353,-0l-0,-2.475l14.591,0l-0,2.475l-5.353,-0l0,10.616l-3.885,0Z" style="fill:#73a3d9;"/><path d="M426.116,303.638l0,4.765l-4.505,0l0,-13.091l14.666,0l-0,2.438l-10.161,-0l0,3.451l8.99,0l-0,2.437l-8.99,0Z" style="fill:#73a3d9;"/><path d="M393.638,274.469l-0,12.367l-14.714,0l0,-44.325l27.061,0c8.851,0 15.723,1.429 20.615,4.286c4.892,2.857 7.338,6.784 7.338,11.781c0,3.292 -1.114,6.128 -3.342,8.509c-2.229,2.38 -5.403,4.206 -9.521,5.476l-0.118,0.036l14.176,14.237l-15.836,0l-12.222,-12.371c-0.242,0.003 -0.486,0.004 -0.732,0.004l-12.705,-0Zm-0,-8.177l11.948,0c4.491,0 7.866,-0.68 10.124,-2.042c2.258,-1.362 3.387,-3.253 3.387,-5.672c0,-2.444 -1.129,-4.341 -3.387,-5.69c-2.258,-1.349 -5.633,-2.023 -10.124,-2.023l-11.948,-0l-0,15.427Zm-56.982,1.935l-0,10.222l35.416,0l0,8.224l-50.349,-0l0,-44.17l49.085,-0l0,8.223l-34.152,0l-0,9.553l30.233,0l0,7.948l-30.233,-0Zm-59.406,0.076l0,18.142l-12.727,-0l-0,-44.252l12.727,-0l0,17.47l24.892,0l0,-17.47l12.729,-0l0,44.252l-12.729,-0l0,-18.142l-24.892,0Zm-56.462,5.95l-0,12.215l-13.466,0l-0,-44.275l25.094,-0c5.218,-0 9.712,0.643 13.482,1.928c3.769,1.286 6.674,3.132 8.713,5.54c2.04,2.407 3.06,5.267 3.06,8.58c-0,3.289 -1.02,6.133 -3.06,8.531c-2.039,2.399 -4.944,4.246 -8.713,5.54c-3.77,1.294 -8.264,1.941 -13.482,1.941l-11.628,-0Zm-0,-8.343l10.935,-0c4.11,-0 7.198,-0.674 9.265,-2.022c2.067,-1.348 3.1,-3.23 3.1,-5.647c0,-2.441 -1.033,-4.336 -3.1,-5.683c-2.067,-1.348 -5.155,-2.021 -9.265,-2.021l-10.935,-0l-0,15.373Zm-54.899,5.747l-21.559,-29.154l13.701,-0l14.815,20.109l14.902,-20.109l12.607,-0l-21.559,29.23l0,16.058l-12.907,0l-0,-16.134Zm-50.223,14.104c-4.1,-0 -7.895,-0.541 -11.383,-1.621c-3.487,-1.08 -6.513,-2.612 -9.076,-4.597c-2.563,-1.985 -4.558,-4.325 -5.985,-7.019c-1.427,-2.694 -2.141,-5.654 -2.141,-8.882c0,-3.228 0.714,-6.188 2.141,-8.882c1.427,-2.694 3.43,-5.034 6.008,-7.019c2.578,-1.985 5.611,-3.517 9.099,-4.597c3.487,-1.081 7.282,-1.621 11.383,-1.621c4.571,0 8.71,0.642 12.418,1.925c3.708,1.283 6.808,3.163 9.3,5.639l-7.821,5.881c-1.801,-1.663 -3.811,-2.921 -6.03,-3.773c-2.218,-0.852 -4.645,-1.278 -7.28,-1.278c-2.467,0 -4.728,0.331 -6.781,0.993c-2.054,0.661 -3.834,1.602 -5.339,2.822c-1.505,1.22 -2.673,2.671 -3.503,4.352c-0.831,1.681 -1.246,3.534 -1.246,5.558c-0,2.024 0.415,3.877 1.246,5.558c0.83,1.681 1.998,3.132 3.503,4.352c1.505,1.22 3.285,2.161 5.339,2.822c2.053,0.662 4.314,0.992 6.781,0.992c2.635,0 5.062,-0.425 7.28,-1.277c2.219,-0.852 4.229,-2.122 6.03,-3.81l7.821,5.881c-2.492,2.46 -5.592,4.342 -9.3,5.646c-3.708,1.303 -7.862,1.955 -12.464,1.955Zm-63.893,-0c-4.108,-0 -7.906,-0.551 -11.396,-1.651c-3.489,-1.101 -6.513,-2.647 -9.072,-4.64c-2.559,-1.993 -4.549,-4.334 -5.97,-7.021c-1.421,-2.688 -2.132,-5.627 -2.132,-8.818c0,-3.192 0.711,-6.126 2.132,-8.802c1.421,-2.676 3.413,-5.015 5.975,-7.015c2.563,-2 5.583,-3.548 9.061,-4.645c3.478,-1.097 7.271,-1.646 11.378,-1.646c4.124,0 7.916,0.547 11.377,1.639c3.461,1.093 6.47,2.635 9.026,4.627c2.557,1.992 4.545,4.331 5.966,7.016c1.421,2.685 2.132,5.628 2.132,8.829c-0,3.202 -0.711,6.149 -2.132,8.843c-1.421,2.693 -3.409,5.035 -5.966,7.023c-2.556,1.989 -5.565,3.529 -9.026,4.622c-3.461,1.092 -7.245,1.639 -11.353,1.639Zm-0.026,-8.395c2.331,0 4.483,-0.332 6.456,-0.997c1.974,-0.665 3.696,-1.608 5.167,-2.828c1.471,-1.221 2.618,-2.67 3.439,-4.346c0.821,-1.677 1.232,-3.532 1.232,-5.564c-0,-2.033 -0.409,-3.882 -1.227,-5.549c-0.818,-1.667 -1.963,-3.112 -3.436,-4.334c-1.472,-1.222 -3.196,-2.166 -5.17,-2.832c-1.974,-0.666 -4.127,-0.999 -6.458,-0.999c-2.331,0 -4.487,0.334 -6.469,1c-1.983,0.667 -3.713,1.612 -5.191,2.835c-1.477,1.224 -2.627,2.67 -3.447,4.339c-0.82,1.669 -1.231,3.515 -1.231,5.539c0,2.023 0.41,3.874 1.229,5.55c0.82,1.676 1.967,3.129 3.442,4.358c1.475,1.23 3.205,2.175 5.191,2.836c1.985,0.662 4.143,0.992 6.473,0.992Z" style="fill:#0a71ff;"/></svg>
