<?xml version="1.0" encoding="UTF-8" standalone="no"?>
<!DOCTYPE svg PUBLIC "-//W3C//DTD SVG 1.1//EN" "http://www.w3.org/Graphics/SVG/1.1/DTD/svg11.dtd">
<svg width="100%" height="100%" viewBox="0 0 987 101" version="1.1" xmlns="http://www.w3.org/2000/svg" xmlns:xlink="http://www.w3.org/1999/xlink" xml:space="preserve" xmlns:serif="http://www.serif.com/" style="fill-rule:evenodd;clip-rule:evenodd;stroke-linejoin:round;stroke-miterlimit:2;">
    <g transform="matrix(1,0,0,1,-46.4062,-475.137)">
        <g transform="matrix(0.190536,0,0,0.190536,574.091,413.212)">
            <g transform="matrix(1,0,0,1,215,92)">
                <path d="M1472,760L1472,292L1427,313L1394,748.838" style="fill:rgb(15,46,155);"/>
            </g>
        </g>
        <g transform="matrix(0.190536,0,0,0.190536,574.091,413.212)">
            <g transform="matrix(-1,0,0,1,3168,92)">
                <path d="M1472,760L1472,292L1427,313L1394,748.838" style="fill:rgb(10,113,255);"/>
            </g>
        </g>
        <g transform="matrix(0.190536,0,0,0.190536,574.091,413.212)">
            <g transform="matrix(1,0,0,1,214.5,91)">
                <path d="M1425,297L1477,275L1477,234L1425,297Z" style="fill:rgb(15,46,155);"/>
            </g>
        </g>
        <g transform="matrix(0.190536,0,0,0.190536,574.091,413.212)">
            <g transform="matrix(-1,0,0,1,3168.5,91)">
                <path d="M1425,297L1477,275L1477,234L1425,297Z" style="fill:rgb(10,113,255);"/>
            </g>
        </g>
        <g transform="matrix(0.880096,2.11812e-16,-1.40171e-16,0.562336,-383.618,-495.156)">
            <path d="M1544.69,1898.47C1532.42,1898.47 1520.63,1896.83 1509.33,1893.54C1498.03,1890.26 1488.94,1886.01 1482.07,1880.79L1494.12,1853.88C1500.65,1858.57 1508.44,1862.42 1517.49,1865.42C1526.54,1868.43 1535.66,1869.93 1544.86,1869.93C1551.96,1869.93 1557.67,1869.22 1561.98,1867.81C1566.29,1866.4 1569.46,1864.46 1571.49,1861.98C1573.51,1859.49 1574.53,1856.67 1574.53,1853.5C1574.53,1849.39 1572.9,1846.11 1569.65,1843.66C1566.39,1841.21 1562.13,1839.21 1556.86,1837.67C1551.59,1836.13 1545.77,1834.67 1539.41,1833.3C1533.06,1831.92 1526.68,1830.23 1520.3,1828.22C1513.91,1826.22 1508.08,1823.6 1502.81,1820.36C1497.54,1817.13 1493.28,1812.85 1490.03,1807.54C1486.77,1802.22 1485.15,1795.46 1485.15,1787.26C1485.15,1778.54 1487.51,1770.57 1492.24,1763.36C1496.96,1756.14 1504.13,1750.37 1513.73,1746.03C1523.33,1741.7 1535.42,1739.53 1549.99,1739.53C1559.59,1739.53 1569.09,1740.68 1578.49,1742.96C1587.89,1745.25 1596.17,1748.62 1603.34,1753.07L1592.25,1780.03C1585.17,1775.95 1578.01,1772.94 1570.77,1770.99C1563.54,1769.05 1556.51,1768.07 1549.69,1768.07C1542.76,1768.07 1537.13,1768.86 1532.79,1770.45C1528.44,1772.04 1525.3,1774.13 1523.35,1776.75C1521.39,1779.36 1520.42,1782.3 1520.42,1785.56C1520.42,1789.6 1522.05,1792.84 1525.3,1795.26C1528.55,1797.68 1532.81,1799.63 1538.09,1801.1C1543.36,1802.56 1549.19,1803.99 1555.57,1805.38C1561.96,1806.78 1568.33,1808.45 1574.69,1810.41C1581.05,1812.38 1586.86,1814.95 1592.13,1818.14C1597.41,1821.33 1601.67,1825.57 1604.92,1830.86C1608.17,1836.14 1609.8,1842.81 1609.8,1850.87C1609.8,1859.44 1607.41,1867.34 1602.64,1874.56C1597.87,1881.77 1590.68,1887.56 1581.07,1891.92C1571.45,1896.29 1559.32,1898.47 1544.69,1898.47Z" style="fill:rgb(10,113,255);"/>
        </g>
        <g transform="matrix(0.825073,2.02085e-16,-1.41217e-16,0.576564,-282.15,-519.423)">
            <path d="M1296.16,1852.98L1296.16,1895.88L1260.49,1895.88L1260.49,1742.12L1326.09,1742.12C1347.54,1742.12 1364.2,1747.08 1376.06,1756.99C1387.92,1766.9 1393.85,1780.52 1393.85,1797.86C1393.85,1809.28 1391.15,1819.11 1385.75,1827.37C1380.34,1835.63 1372.65,1841.96 1362.67,1846.37L1362.38,1846.49L1396.75,1895.88L1358.36,1895.88L1328.73,1852.97C1328.14,1852.97 1327.55,1852.98 1326.96,1852.98L1296.16,1852.98ZM1296.16,1824.62L1325.12,1824.62C1336.01,1824.62 1344.19,1822.25 1349.66,1817.53C1355.14,1812.81 1357.87,1806.25 1357.87,1797.86C1357.87,1789.38 1355.14,1782.8 1349.66,1778.12C1344.19,1773.44 1336.01,1771.1 1325.12,1771.1L1296.16,1771.1L1296.16,1824.62ZM1158.03,1831.33L1158.03,1866.78L1243.88,1866.78L1243.88,1895.31L1121.84,1895.31L1121.84,1742.09L1240.82,1742.09L1240.82,1770.62L1158.03,1770.62L1158.03,1803.76L1231.32,1803.76L1231.32,1831.33L1158.03,1831.33ZM1014.03,1831.59L1014.03,1894.52L983.18,1894.52L983.18,1741.02L1014.03,1741.02L1014.03,1801.62L1074.37,1801.62L1074.37,1741.02L1105.23,1741.02L1105.23,1894.52L1074.37,1894.52L1074.37,1831.59L1014.03,1831.59ZM877.165,1852.23L877.165,1894.6L844.524,1894.6L844.524,1741.02L905.352,1741.02C918.002,1741.02 928.896,1743.25 938.033,1747.71C947.17,1752.17 954.211,1758.57 959.154,1766.92C964.098,1775.27 966.57,1785.19 966.57,1796.69C966.57,1808.09 964.098,1817.96 959.154,1826.28C954.211,1834.6 947.17,1841.01 938.033,1845.5C928.896,1849.98 918.002,1852.23 905.352,1852.23L877.165,1852.23ZM877.165,1823.29L903.672,1823.29C913.635,1823.29 921.122,1820.95 926.132,1816.28C931.141,1811.6 933.646,1805.07 933.646,1796.69C933.646,1788.22 931.141,1781.65 926.132,1776.97C921.122,1772.3 913.635,1769.96 903.672,1769.96L877.165,1769.96L877.165,1823.29ZM744.089,1843.23L691.83,1742.09L725.042,1742.09L760.953,1811.85L797.076,1742.09L827.635,1742.09L775.377,1843.49L775.377,1899.19L744.089,1899.19L744.089,1843.23ZM622.348,1892.15C612.408,1892.15 603.211,1890.27 594.756,1886.53C586.301,1882.78 578.967,1877.46 572.754,1870.58C566.541,1863.69 561.705,1855.58 558.246,1846.23C554.787,1836.89 553.057,1826.62 553.057,1815.42C553.057,1804.23 554.787,1793.95 558.246,1784.61C561.705,1775.27 566.56,1767.15 572.81,1760.26C579.06,1753.38 586.412,1748.06 594.866,1744.32C603.32,1740.57 612.517,1738.7 622.459,1738.7C633.539,1738.7 643.573,1740.92 652.561,1745.37C661.549,1749.82 669.063,1756.34 675.104,1764.93L656.145,1785.33C651.779,1779.56 646.907,1775.2 641.529,1772.25C636.151,1769.29 630.268,1767.81 623.881,1767.81C617.901,1767.81 612.422,1768.96 607.444,1771.25C602.465,1773.55 598.152,1776.81 594.503,1781.05C590.854,1785.28 588.024,1790.31 586.01,1796.14C583.997,1801.97 582.99,1808.4 582.99,1815.42C582.99,1822.44 583.997,1828.87 586.01,1834.7C588.024,1840.53 590.854,1845.56 594.503,1849.8C598.152,1854.03 602.465,1857.29 607.444,1859.59C612.422,1861.88 617.901,1863.03 623.881,1863.03C630.268,1863.03 636.151,1861.55 641.529,1858.6C646.907,1855.64 651.779,1851.24 656.145,1845.38L675.104,1865.78C669.063,1874.32 661.549,1880.84 652.561,1885.37C643.573,1889.89 633.502,1892.15 622.348,1892.15ZM467.469,1892.15C457.512,1892.15 448.304,1890.24 439.846,1886.42C431.387,1882.6 424.057,1877.24 417.854,1870.32C411.65,1863.41 406.826,1855.29 403.382,1845.97C399.937,1836.65 398.215,1826.45 398.215,1815.38C398.215,1804.31 399.937,1794.13 403.382,1784.85C406.826,1775.57 411.655,1767.46 417.866,1760.52C424.078,1753.58 431.399,1748.21 439.83,1744.4C448.261,1740.6 457.454,1738.7 467.41,1738.7C477.407,1738.7 486.6,1740.59 494.99,1744.38C503.379,1748.17 510.672,1753.52 516.869,1760.43C523.065,1767.34 527.886,1775.45 531.331,1784.77C534.775,1794.08 536.498,1804.29 536.498,1815.39C536.498,1826.5 534.775,1836.72 531.331,1846.07C527.886,1855.41 523.065,1863.53 516.869,1870.43C510.672,1877.33 503.379,1882.67 494.99,1886.46C486.6,1890.25 477.427,1892.15 467.469,1892.15ZM467.407,1863.03C473.056,1863.03 478.272,1861.88 483.056,1859.57C487.84,1857.26 492.015,1853.99 495.581,1849.76C499.147,1845.52 501.926,1840.5 503.916,1834.68C505.907,1828.87 506.902,1822.43 506.902,1815.38C506.902,1808.33 505.911,1801.92 503.929,1796.13C501.947,1790.35 499.171,1785.34 495.601,1781.1C492.031,1776.86 487.853,1773.59 483.068,1771.28C478.282,1768.97 473.063,1767.81 467.413,1767.81C461.764,1767.81 456.537,1768.97 451.731,1771.28C446.926,1773.59 442.732,1776.87 439.15,1781.12C435.568,1785.36 432.782,1790.38 430.794,1796.17C428.805,1801.96 427.811,1808.36 427.811,1815.38C427.811,1822.4 428.803,1828.82 430.789,1834.63C432.775,1840.44 435.556,1845.48 439.131,1849.75C442.707,1854.01 446.901,1857.29 451.714,1859.59C456.527,1861.88 461.758,1863.03 467.407,1863.03Z" style="fill:rgb(10,113,255);"/>
        </g>
    </g>
</svg>
